<svg className="mixin-logo"
width="36" height="34" viewBox="0 0 36 34" fill="none" xmlns="http://www.w3.org/2000/svg">
<path d="M17.9943 9.90826L5.66023 16.7074L2.56248 14.9991C0.979437 14.1335 0 12.4707 0 10.6599V0.0227781L0.0113895 0L17.9943 9.90826Z" fill="#25313C"/>
<path d="M35.9887 22.7436V33.3808L35.9774 33.4035L20.4316 24.8392L32.071 18.4273L32.7771 18.04L33.4377 18.4045C35.0093 19.27 35.9887 20.9328 35.9887 22.7436Z" fill="#25313C"/>
<path d="M36 0C36 3.55331 36 7.10661 36 10.6599C36 12.4707 35.0206 14.1221 33.4375 14.9991L30.3398 16.7074L17.9943 23.4951L1.7311 32.4467L0.0113895 33.392L0 33.3692V22.732C0 20.9212 0.979437 19.2699 2.56248 18.3929L5.66024 16.6846L17.9943 9.88548C23.9962 6.60551 29.9981 3.30275 36 0Z" fill="#25313C"/>
</svg>
