<svg
className='theme-svg' 
width="52" height="52" viewBox="0 0 52 52" fill="none" xmlns="http://www.w3.org/2000/svg">
<path d="M26 36.3327C28.7406 36.3327 31.3689 35.244 33.3068 33.3061C35.2446 31.3682 36.3333 28.7399 36.3333 25.9994C36.3333 23.2588 35.2446 20.6305 33.3068 18.6926C31.3689 16.7547 28.7406 15.666 26 15.666V36.3327Z" fill="black"/>
<path fill-rule="evenodd" clip-rule="evenodd" d="M26.0003 0.166016C11.7326 0.166016 0.166992 11.7316 0.166992 25.9994C0.166992 40.2671 11.7326 51.8327 26.0003 51.8327C40.2681 51.8327 51.8337 40.2671 51.8337 25.9994C51.8337 11.7316 40.2681 0.166016 26.0003 0.166016ZM26.0003 5.33268V15.666C23.2598 15.666 20.6314 16.7547 18.6936 18.6926C16.7557 20.6305 15.667 23.2588 15.667 25.9994C15.667 28.7399 16.7557 31.3682 18.6936 33.3061C20.6314 35.244 23.2598 36.3327 26.0003 36.3327V46.666C31.4815 46.666 36.7381 44.4886 40.6139 40.6129C44.4896 36.7371 46.667 31.4805 46.667 25.9994C46.667 20.5182 44.4896 15.2616 40.6139 11.3858C36.7381 7.51006 31.4815 5.33268 26.0003 5.33268Z" fill="black"/>
</svg>
