<svg width="29" height="29" viewBox="0 0 29 29" fill="none" xmlns="http://www.w3.org/2000/svg">
<path d="M12.7524 7.53959L8.66459 2.82105C8.19334 2.2773 7.32938 2.27971 6.782 2.8283L3.42042 6.19592C2.41992 7.19763 2.13355 8.68509 2.71234 9.87771C6.17013 17.037 11.9441 22.8191 19.0985 26.2869C20.29 26.8657 21.7762 26.5793 22.7767 25.5776L26.1697 22.1785C26.7195 21.6288 26.7207 20.76 26.1721 20.2887L21.4355 16.2227C20.94 15.7973 20.1703 15.8529 19.6737 16.3508L18.0255 18.0013C17.9412 18.0898 17.8301 18.1481 17.7094 18.1673C17.5887 18.1865 17.465 18.1655 17.3573 18.1077C14.6633 16.5563 12.4285 14.3186 10.8807 11.6225C10.8227 11.5147 10.8017 11.3908 10.8209 11.2699C10.8401 11.149 10.8985 11.0377 10.987 10.9531L12.6303 9.30859C13.1282 8.80834 13.1825 8.03501 12.7524 7.53838V7.53959Z" stroke="#25313C" stroke-width="3" stroke-linecap="round" stroke-linejoin="round"/>
</svg>
