 <svg width="30" height="45" viewBox="0 0 30 45" fill="none" xmlns="http://www.w3.org/2000/svg">
                    <g clip-path="url(#clip0_193:1360)">
                        <path d="M7.5 44.6339C11.64 44.6339 15 41.3012 15 37.1949V29.7559H7.5C3.36 29.7559 0 33.0885 0 37.1949C0 41.3012 3.36 44.6339 7.5 44.6339Z" fill="#0ACF83" />
                        <path d="M0 22.317C0 18.2106 3.36 14.8779 7.5 14.8779H15V29.756H7.5C3.36 29.756 0 26.4233 0 22.317Z" fill="#A259FF" />
                        <path d="M0 7.43902C0 3.33268 3.36 0 7.5 0H15V14.878H7.5C3.36 14.878 0 11.5454 0 7.43902Z" fill="#F24E1E" />
                        <path d="M15 0H22.5C26.64 0 30 3.33268 30 7.43902C30 11.5454 26.64 14.878 22.5 14.878H15V0Z" fill="#FF7262" />
                        <path d="M30 22.317C30 26.4233 26.64 29.756 22.5 29.756C18.36 29.756 15 26.4233 15 22.317C15 18.2106 18.36 14.8779 22.5 14.8779C26.64 14.8779 30 18.2106 30 22.317Z" fill="#1ABCFE" />
                    </g>
                    <defs>
                        <clipPath id="clip0_193:1360">
                            <rect width="30" height="44.6341" fill="white" />
                        </clipPath>
                    </defs>
                </svg>