<svg width="49" height="47" viewBox="0 0 49 47" fill="none" xmlns="http://www.w3.org/2000/svg">
<g clip-path="url(#clip0_193:1833)">
<path d="M19.7327 42.9274L17.2139 14.665H44.9009L42.3787 42.9229L31.0406 46.0664L19.7327 42.9274Z" fill="#1572B6"/>
<path d="M31.0566 43.6644L40.2191 41.1242L42.3746 16.9766H31.0566V43.6644Z" fill="#33A9DC"/>
<path d="M31.0566 27.2162H35.6435L35.9597 23.6667H31.0566V20.2002H39.7481L39.6651 21.1299L38.8139 30.6827H31.0566V27.2162Z" fill="white"/>
<path d="M31.0781 36.218L31.0624 36.2225L27.2023 35.1795L26.9555 32.415H23.4756L23.9612 37.8576L31.0613 39.8291L31.0781 39.8247V36.218Z" fill="#EBEBEB"/>
<path d="M35.3484 30.5352L34.9312 35.177L31.0654 36.2199V39.8266L38.1711 37.8573L38.2238 37.2719L38.8261 30.5352H35.3484Z" fill="white"/>
<path d="M31.0694 20.2002V23.6667H22.6964L22.6269 22.8873L22.4687 21.1299L22.3857 20.2002H31.0694Z" fill="#EBEBEB"/>
<path d="M31.057 27.2158V30.6823H27.2451L27.1755 29.9029L27.0185 28.1455L26.9355 27.2158H31.057Z" fill="#EBEBEB"/>
</g>
<g clip-path="url(#clip1_193:1833)">
<path d="M25.4904 0.133789L23.1722 26.0164L12.7516 28.8955L2.35977 26.0204L0.0439453 0.133789H25.4904Z" fill="#E44D26"/>
<path d="M12.7676 26.6944L21.1879 24.3679L23.1689 2.25H12.7676V26.6944Z" fill="#F16529"/>
<path d="M8.26076 8.59969H12.7673V5.4248H4.7793L4.8555 6.27656L5.63852 15.0257H12.7673V11.8508H8.55192L8.26076 8.59969Z" fill="#EBEBEB"/>
<path d="M8.97914 16.6133H5.78125L6.22752 21.5983L12.7531 23.4036L12.7677 23.3997V20.0964L12.7538 20.1001L9.20596 19.1454L8.97914 16.6133Z" fill="#EBEBEB"/>
<path d="M12.7569 15.0255H16.6797L16.3098 19.1431L12.7568 20.0988V23.4018L19.2876 21.598L19.3354 21.0616L20.0841 12.7031L20.1618 11.8506H12.7569V15.0255Z" fill="white"/>
<path d="M12.7568 8.59193V8.59968H20.4516L20.5154 7.88611L20.6607 6.27656L20.7368 5.4248H12.7568V8.59203V8.59193Z" fill="white"/>
</g>
<defs>
<clipPath id="clip0_193:1833">
<rect width="35.8873" height="30.0556" fill="white" transform="translate(13.1133 16.1836)"/>
</clipPath>
<clipPath id="clip1_193:1833">
<rect width="25.5352" height="30.0556" fill="white"/>
</clipPath>
</defs>
</svg>
