<svg width="31" height="25" viewBox="0 0 31 25" fill="none" xmlns="http://www.w3.org/2000/svg">
<path d="M26.2923 0.166992H4.70898C3.48236 0.166992 2.30597 0.654268 1.43862 1.52162C0.57126 2.38898 0.0839844 3.56537 0.0839844 4.79199V20.2087C0.0839844 21.4353 0.57126 22.6117 1.43862 23.479C2.30597 24.3464 3.48236 24.8337 4.70898 24.8337H26.2923C27.5189 24.8337 28.6953 24.3464 29.5627 23.479C30.43 22.6117 30.9173 21.4353 30.9173 20.2087V4.79199C30.9173 3.56537 30.43 2.38898 29.5627 1.52162C28.6953 0.654268 27.5189 0.166992 26.2923 0.166992ZM25.2594 3.25033L15.5007 10.5732L5.7419 3.25033H25.2594ZM26.2923 21.7503H4.70898C4.30011 21.7503 3.90798 21.5879 3.61886 21.2988C3.32974 21.0097 3.16732 20.6175 3.16732 20.2087V5.17741L14.5757 13.7337C14.8425 13.9338 15.1671 14.042 15.5007 14.042C15.8342 14.042 16.1588 13.9338 16.4257 13.7337L27.834 5.17741V20.2087C27.834 20.6175 27.6716 21.0097 27.3824 21.2988C27.0933 21.5879 26.7012 21.7503 26.2923 21.7503Z" fill="#25313C"/>
</svg>
