<svg width="47" height="42" viewBox="0 0 47 42" fill="none" xmlns="http://www.w3.org/2000/svg">
<path d="M38.6434 13.5991C38.1432 13.4269 37.6387 13.2674 37.1306 13.1207C37.2159 12.7707 37.2945 12.425 37.3643 12.0853C38.5095 6.50721 37.7608 2.01339 35.2035 0.53381C32.7517 -0.884611 28.7418 0.594415 24.6921 4.13071C24.293 4.47985 23.9027 4.83905 23.5217 5.20797C23.2666 4.96265 23.007 4.72209 22.743 4.48642C18.4987 0.70531 14.2445 -0.888295 11.69 0.595521C9.24027 2.01836 8.51489 6.24286 9.54596 11.5293C9.64854 12.0529 9.76436 12.5738 9.89332 13.0914C9.29113 13.2631 8.71005 13.4459 8.15395 13.6404C3.17782 15.3812 0 18.1092 0 20.9388C0 23.8613 3.41154 26.7927 8.59439 28.5701C9.01457 28.7136 9.43826 28.8466 9.86504 28.9689C9.72643 29.5265 9.60338 30.0878 9.49602 30.6522C8.51306 35.847 9.28066 39.9716 11.7237 41.3854C14.2471 42.8455 18.4822 41.3449 22.6059 37.7279C22.9403 37.4339 23.2673 37.1315 23.5867 36.8211C23.9993 37.2205 24.4229 37.6084 24.8571 37.9842C28.8518 41.433 32.7968 42.8256 35.2375 41.4079C37.7584 39.9436 38.5778 35.5126 37.5141 30.1217C37.4303 29.6994 37.3363 29.2791 37.2323 28.8613C37.5297 28.7729 37.8216 28.6819 38.1062 28.5872C43.4943 26.7962 47 23.9004 47 20.9388C47 18.0988 43.7195 15.3524 38.6434 13.5991V13.5991ZM37.4748 26.6751C37.2178 26.7604 36.9541 26.8428 36.6853 26.9229C36.0905 25.0334 35.2878 23.0244 34.3054 20.9486C35.2428 18.9223 36.0147 16.9389 36.5928 15.0618C37.0736 15.2014 37.5401 15.3486 37.99 15.5039C42.3393 17.0063 44.9922 19.2273 44.9922 20.9388C44.9922 22.7618 42.1271 25.1283 37.4748 26.6751V26.6751ZM35.5445 30.513C36.0149 32.8967 36.0819 35.0519 35.7703 36.7369C35.4905 38.2509 34.9276 39.2602 34.2314 39.6646C32.7504 40.5248 29.5828 39.4067 26.1667 36.4571C25.7629 36.1077 25.3688 35.7471 24.9849 35.3758C26.3094 33.9225 27.6329 32.2331 28.9246 30.3568C31.1968 30.1545 33.3434 29.8237 35.29 29.3722C35.3859 29.7603 35.471 30.1409 35.5445 30.513V30.513ZM16.0233 39.5159C14.5762 40.0286 13.4236 40.0433 12.7269 39.6402C11.2444 38.7824 10.6281 35.4704 11.4687 31.028C11.5687 30.5031 11.6831 29.981 11.8119 29.4624C13.737 29.8898 15.868 30.197 18.1455 30.3824C19.4461 32.2184 20.8078 33.9059 22.1801 35.3837C21.8885 35.6668 21.5899 35.9427 21.2848 36.2112C19.4611 37.8105 17.6338 38.9452 16.0233 39.5159V39.5159ZM9.24395 26.6639C6.95214 25.8779 5.05948 24.8564 3.7622 23.7418C2.59638 22.7402 2.00796 21.7457 2.00796 20.9388C2.00796 19.2216 4.55937 17.0313 8.81489 15.5427C9.33134 15.3622 9.87184 15.1918 10.4327 15.0319C11.0209 16.9514 11.7924 18.9584 12.7234 20.9878C11.7803 23.0473 10.9978 25.0863 10.4039 27.0284C10.0143 26.9165 9.62756 26.7949 9.24395 26.6639V26.6639ZM11.5165 11.1423C10.6332 6.61313 11.2198 3.19657 12.6961 2.33907C14.2684 1.42576 17.7453 2.72794 21.41 5.99289C21.6489 6.20628 21.884 6.42399 22.1152 6.64592C20.7496 8.1172 19.4004 9.79223 18.1113 11.6174C15.9009 11.823 13.785 12.1531 11.8396 12.5954C11.7197 12.1139 11.612 11.6294 11.5165 11.1425V11.1423ZM31.7902 16.1654C31.3307 15.369 30.8541 14.5827 30.3609 13.8069C31.8605 13.9972 33.2973 14.2498 34.6465 14.5585C34.2415 15.8612 33.7366 17.2231 33.1423 18.6194C32.7079 17.7924 32.2571 16.9743 31.7902 16.1654V16.1654ZM23.5226 8.08571C24.4486 9.09242 25.3761 10.2163 26.2884 11.4358C24.4378 11.3481 22.5841 11.3477 20.7334 11.4347C21.6466 10.2264 22.582 9.10402 23.5226 8.08571ZM15.2019 16.1792C14.7408 16.9816 14.2984 17.7947 13.8751 18.6178C13.2905 17.2264 12.7902 15.8583 12.3817 14.5371C13.7227 14.2361 15.1527 13.99 16.6428 13.8032C16.144 14.5837 15.6636 15.3759 15.2019 16.179V16.1792ZM16.6856 28.2177C15.1461 28.0453 13.6946 27.8119 12.354 27.519C12.7689 26.1743 13.2803 24.777 13.8775 23.3558C14.3025 24.1796 14.7467 24.9931 15.2098 25.7959C15.6861 26.6212 16.1792 27.4295 16.6856 28.2177ZM23.578 33.9338C22.6263 32.9037 21.6771 31.7639 20.7501 30.5382C21.6501 30.5736 22.5675 30.5916 23.5 30.5916C24.458 30.5916 25.405 30.5701 26.3371 30.5284C25.4219 31.7763 24.4978 32.9177 23.578 33.9338ZM33.1613 23.2833C33.7895 24.7201 34.319 26.11 34.7394 27.4317C33.3768 27.7437 31.9055 27.995 30.3552 28.1816C30.852 27.3914 31.333 26.5914 31.7981 25.7821C32.2709 24.9594 32.7254 24.1262 33.1613 23.2833V23.2833ZM30.0589 24.7756C29.3469 26.0165 28.595 27.2338 27.8042 28.4257C26.3717 28.5275 24.9361 28.578 23.5 28.5773C22.0373 28.5773 20.6146 28.5316 19.2447 28.4424C18.4332 27.2533 17.6669 26.0338 16.9474 24.7866H16.9475C16.2314 23.546 15.5624 22.2785 14.9421 20.9869C15.5608 19.695 16.2278 18.4269 16.9415 17.1853L16.9413 17.1855C17.6547 15.9436 18.4149 14.7293 19.2202 13.5453C20.6179 13.4392 22.0513 13.384 23.4998 13.384H23.5C24.9552 13.384 26.3903 13.4398 27.7876 13.5466C28.5848 14.7289 29.3402 15.939 30.0523 17.1747C30.7684 18.4135 31.4441 19.6754 32.0784 20.9583C31.4506 22.2544 30.777 23.5276 30.0589 24.7756V24.7756ZM34.2008 2.27902C35.7745 3.18976 36.3866 6.86236 35.3978 11.6785C35.3346 11.9858 35.2638 12.2988 35.1867 12.6162C33.2365 12.1645 31.1191 11.8287 28.9022 11.62C27.6108 9.77473 26.2726 8.09713 24.9293 6.64481C25.2813 6.3043 25.6418 5.97262 26.0103 5.65007C29.4802 2.62036 32.7232 1.4241 34.2008 2.27902V2.27902ZM23.5 16.7278C25.8179 16.7278 27.697 18.6132 27.697 20.9388C27.697 23.2645 25.8179 25.1499 23.5 25.1499C21.1821 25.1499 19.303 23.2645 19.303 20.9388C19.303 18.6132 21.1821 16.7278 23.5 16.7278V16.7278Z" fill="#00D8FF"/>
</svg>
