<svg width="42" height="42" viewBox="0 0 42 42" fill="none" xmlns="http://www.w3.org/2000/svg">
<path d="M0 0H42V42H0V0Z" fill="#F7DF1E"/>
<path d="M11.0431 35.0983L14.2571 33.1532C14.8773 34.2526 15.4413 35.1828 16.7943 35.1828C18.0913 35.1828 18.9091 34.6756 18.9091 32.7022V19.2822H22.856V32.758C22.856 36.8459 20.4597 38.7067 16.9635 38.7067C13.8061 38.7067 11.9734 37.0715 11.043 35.098" fill="#3D1734"/>
<path d="M25.0002 34.6756L28.2138 32.8149C29.0599 34.1965 30.1594 35.2114 32.1046 35.2114C33.7401 35.2114 34.7829 34.3937 34.7829 33.2659C34.7829 31.9127 33.7116 31.4334 31.9072 30.6442L30.9207 30.2209C28.0731 29.009 26.1842 27.4865 26.1842 24.2725C26.1842 21.3122 28.4396 19.0566 31.9638 19.0566C34.473 19.0566 36.2773 19.9308 37.5741 22.2144L34.5009 24.188C33.8241 22.9758 33.0914 22.4965 31.9636 22.4965C30.8076 22.4965 30.0746 23.2296 30.0746 24.188C30.0746 25.3721 30.8076 25.8516 32.4991 26.5846L33.4858 27.0074C36.8409 28.4454 38.7297 29.9113 38.7297 33.2097C38.7297 36.7623 35.9387 38.7074 32.1891 38.7074C28.5241 38.7074 26.1558 36.9595 25 34.6757" fill="#3D1734"/>
</svg>
