<svg width="42" height="42" viewBox="0 0 42 42" fill="none" xmlns="http://www.w3.org/2000/svg">
<path d="M17.2375 14.7354C16.59 14.4729 15.89 14.3679 15.1725 14.3854C14.7175 14.3854 14.315 14.3854 13.9825 14.4029C13.6325 14.3854 13.3875 14.4029 13.265 14.4204V20.3004C13.51 20.3179 13.7375 20.3354 13.9475 20.3354H14.875C15.5575 20.3354 16.24 20.2304 16.8875 20.0204C17.4475 19.8629 17.9375 19.5304 18.3225 19.0929C18.69 18.6554 18.865 18.0604 18.865 17.2904C18.8825 16.7479 18.7425 16.2054 18.4625 15.7329C18.1707 15.2785 17.7416 14.9291 17.2375 14.7354ZM34.5625 0.525391H7.4375C3.325 0.525391 0 3.85039 0 7.96289V34.0361C0 38.1486 3.325 41.4736 7.4375 41.4736H34.5625C38.675 41.4736 42 38.1486 42 34.0361V7.96289C42 3.85039 38.675 0.525391 34.5625 0.525391ZM21.6283 20.9129C20.93 21.8929 19.95 22.6279 18.8125 23.0479C17.6225 23.4854 16.31 23.6429 14.875 23.6429C14.455 23.6429 14.175 23.6429 14 23.6254C13.825 23.6079 13.58 23.6079 13.2475 23.6079V29.2236C13.265 29.3461 13.1775 29.4529 13.055 29.4704H9.66C9.52 29.4704 9.45 29.3986 9.45 29.2411V11.2354C9.45 11.1129 9.5025 11.0429 9.625 11.0429C9.9225 11.0429 10.2025 11.0429 10.605 11.0254C11.025 11.0079 11.4625 11.0079 11.935 10.9904C12.4075 10.9729 12.915 10.9729 13.4575 10.9554C14 10.9379 14.525 10.9379 15.05 10.9379C16.485 10.9379 17.675 11.1129 18.655 11.4804C19.53 11.7779 20.335 12.2679 21 12.9154C21.56 13.4754 21.9975 14.1579 22.2775 14.9104C22.5382 15.6454 22.6782 16.3979 22.6782 17.1854C22.68 18.6904 22.33 19.9329 21.6283 20.9129ZM34.0375 27.7204C33.5475 28.4204 32.8633 28.9611 32.0775 29.2796C31.22 29.6454 30.17 29.8361 28.9082 29.8361C28.105 29.8361 27.3158 29.7679 26.53 29.6104C25.9175 29.5036 25.305 29.3129 24.745 29.0504C24.6225 28.9821 24.5333 28.8596 24.5508 28.7196V25.6746C24.5508 25.6239 24.57 25.5521 24.6225 25.5171C24.6733 25.4821 24.7275 25.4996 24.78 25.5346C25.4625 25.9371 26.18 26.2189 26.95 26.3921C27.6132 26.5671 28.3132 26.6546 29.015 26.6546C29.68 26.6546 30.1525 26.5654 30.4675 26.4079C30.7475 26.2854 30.94 25.9879 30.94 25.6729C30.94 25.4261 30.8 25.2004 30.52 24.9729C30.24 24.7471 29.6643 24.4846 28.8068 24.1486C27.9143 23.8336 27.0935 23.4136 26.3218 22.8904C25.7741 22.4982 25.3195 21.9904 24.99 21.4029C24.7119 20.8492 24.5742 20.2356 24.5892 19.6161C24.5892 18.8636 24.7992 18.1461 25.186 17.4986C25.6235 16.7986 26.2693 16.2386 27.0217 15.8886C27.8425 15.4704 28.875 15.2779 30.1175 15.2779C30.835 15.2779 31.57 15.3304 32.2875 15.4354C32.8125 15.5054 33.32 15.6454 33.7925 15.8379C33.8607 15.8554 33.9325 15.9254 33.9675 15.9954C33.985 16.0654 34.0025 16.1354 34.0025 16.2054V19.0579C34.0025 19.1279 33.9675 19.1979 33.915 19.2329C33.7575 19.2679 33.67 19.2679 33.6 19.2329C33.075 18.9529 32.515 18.7604 31.92 18.6379C31.2725 18.4979 30.625 18.4104 29.96 18.4104C29.61 18.3929 29.2425 18.4454 28.9082 18.5329C28.6825 18.5854 28.4882 18.7079 28.3657 18.8829C28.2782 19.0229 28.2257 19.1979 28.2257 19.3554C28.2257 19.5129 28.2957 19.6704 28.4025 19.8104C28.56 20.0029 28.7682 20.1604 28.9975 20.2829C29.3982 20.4929 29.82 20.6854 30.2382 20.8604C31.185 21.1754 32.095 21.6129 32.935 22.1379C33.5125 22.5036 33.985 22.9954 34.3158 23.5904C34.5957 24.1469 34.7358 24.7629 34.7183 25.3911C34.7375 26.2154 34.4925 27.0361 34.0375 27.7204Z" fill="#1D1D1D"/>
</svg>
