<svg width="43" height="43" viewBox="0 0 43 43" fill="none" xmlns="http://www.w3.org/2000/svg">
<path d="M18.8662 19.2242C18.6871 18.6688 18.5258 18.1313 18.3467 17.5759C18.1675 17.0204 18.0063 16.5009 17.8629 15.9813C17.7196 15.4796 17.5942 15.0138 17.4687 14.5838H17.4329C17.2717 15.3542 17.0746 16.1246 16.8238 16.895C16.555 17.755 16.2863 18.6509 15.9996 19.5467C15.7488 20.4604 15.48 21.3025 15.2112 22.055H19.7621C19.6546 21.677 19.5112 21.2309 19.35 20.7632C19.1887 20.2813 19.0275 19.7617 18.8662 19.2242V19.2242ZM35.3854 0.537109H7.61458C3.40417 0.537109 0 3.94128 0 8.15169V34.8475C0 39.0579 3.40417 42.4621 7.61458 42.4621H35.3854C39.5958 42.4621 43 39.0579 43 34.8475V8.15169C43 3.94128 39.5958 0.537109 35.3854 0.537109ZM26.3375 30.1534H22.5911C22.4675 30.1713 22.3421 30.0817 22.3062 29.9563L20.8371 25.6921H14.1721L12.8104 29.9025C12.7746 30.0638 12.6312 30.1713 12.47 30.1552H9.10167C8.90458 30.1552 8.85083 30.0459 8.90458 29.8327L14.6737 13.2221C14.7275 13.0429 14.7812 12.8459 14.8529 12.6309C14.9246 12.2546 14.9604 11.8604 14.9604 11.4663C14.9425 11.3767 15.0142 11.2871 15.1038 11.2692H19.7442C19.8875 11.2692 19.9592 11.3229 19.9771 11.4125L26.5167 29.8667C26.5704 30.062 26.5167 30.1534 26.3375 30.1534V30.1534ZM32.4292 29.8846C32.4292 30.0817 32.3593 30.1713 32.198 30.1713H28.6846C28.5054 30.1713 28.4158 30.062 28.4158 29.8846V16.0888C28.4158 15.9096 28.4893 15.8379 28.6505 15.8379H32.198C32.3593 15.8379 32.4292 15.9275 32.4292 16.0888V29.8846V29.8846ZM32.0547 13.7059C31.8431 13.9208 31.588 14.0879 31.3065 14.196C31.025 14.3042 30.7235 14.3509 30.4225 14.3329C29.8312 14.3509 29.2579 14.1179 28.8261 13.7059C28.4156 13.257 28.197 12.6654 28.217 12.0575C28.199 11.4484 28.432 10.875 28.8602 10.4629C29.2937 10.0509 29.8671 9.83586 30.4583 9.83586C31.1589 9.83586 31.6928 10.0509 32.0887 10.4629C32.4829 10.8929 32.6979 11.4663 32.68 12.0575C32.6979 12.6667 32.4829 13.2579 32.0547 13.7059V13.7059Z" fill="#1D1D1D"/>
</svg>
